<svg viewBox="0 0 37 37" xmlns="http://www.w3.org/2000/svg"><path d="m19 25v1h1v-1zm11 0v1h1v-1zm-19-4v1h1v-1zm11 9v1h1v-1zm-10-26v1h1v-1zm19 13v1h1v-1zm-8-4v1h1v-1zm-19-4v1h1v-1zm19 13v1h1v-1zm-19-4v1h1v-1zm0 9v1h1v-1zm4-21v1h1v-1zm18 8v1h1v-1zm-19-4v1h1v-1zm19 13v1h1v-1zm-19 5v1h1v-1zm11 0v1h1v-1zm1-17v1h1v-1zm0 9v1h1v-1zm-8-4v1h1v-1zm8 13v1h1v-1zm11 0v1h1v-1zm1-17v1h1v-1zm-19-4v1h1v-1zm11 0v1h1v-1zm-19-4v1h1v-1zm25 11v1h1v-1zm0 9v1h1v-1zm-3-15v1h1v-1zm0 9v1h1v-1zm-19-4v1h1v-1zm0 9v1h1v-1zm11 0v1h1v-1zm-11 9v1h1v-1zm11 0v1h1v-1zm12-26v1h1v-1zm-8 5v1h1v-1zm8 13v1h1v-1zm-19-4v1h1v-1zm11 0v1h1v-1zm3 11v1h1v-1zm-10-23v1h1v-1zm-1 4v1h1v-1zm15-2v1h1v-1zm-15 11v1h1v-1zm-8-4v1h1v-1zm23 2v1h1v-1zm-23 7v1h1v-1zm20-22v1h1v-1zm-8 5v1h1v-1zm8 13v1h1v-1zm-19-4v1h1v-1zm19 13v1h1v-1zm4-21v1h1v-1zm-9 19v1h1v-1zm11 0v1h1v-1zm-10-23v1h1v-1zm0 9v1h1v-1zm3 2v1h1v-1zm-15 11v1h1v-1zm4-21v1h1v-1zm0 9v1h1v-1zm15-2v1h1v-1zm-15 11v1h1v-1zm-8 5v1h1v-1zm20-22v1h1v-1zm-19-4v1h1v-1zm11 0v1h1v-1zm8 13v1h1v-1zm-8-4v1h1v-1zm-11 9v1h1v-1zm11 0v1h1v-1zm3 2v1h1v-1zm11 0v1h1v-1zm-19 5v1h1v-1zm-3-15v1h1v-1zm15-2v1h1v-1zm0 9v1h1v-1zm-15 11v1h1v-1zm15-2v1h1v-1zm-11-19v1h1v-1zm-8-4v1h1v-1zm8 13v1h1v-1zm-8-4v1h1v-1zm23 2v1h1v-1zm-15 11v1h1v-1zm-7-21v1h1v-1zm11 0v1h1v-1zm14 2v1h1v-1zm-19 5v1h1v-1zm-4 11v1h1v-1zm1-17v1h1v-1zm0 9v1h1v-1zm15-2v1h1v-1zm-15 11v1h1v-1zm4-21v1h1v-1zm15-2v1h1v-1zm-23 16v1h1v-1zm11-3v1h1v-1zm11 0v1h1v-1zm0 9v1h1v-1zm-7-21v1h1v-1zm11 0v1h1v-1zm-23 7v1h1v-1zm0 9v1h1v-1zm23 2v1h1v-1zm-19-4v1h1v-1zm-3-15v1h1v-1zm0 18v1h1v-1zm14 2v1h1v-1zm-10-14v1h1v-1zm-8-4v1h1v-1zm0 9v1h1v-1zm22-3v1h1v-1zm0 9v1h1v-1zm-11 9v1h1v-1zm11 0v1h1v-1zm-8-4v1h1v-1zm12-17v1h1v-1zm-19-4v1h1v-1zm-4 11v1h1v-1zm12 2v1h1v-1zm11 0v1h1v-1zm-19-4v1h1v-1zm8 13v1h1v-1zm-11-19v1h1v-1zm14 20v1h1v-1zm-8-4v1h1v-1zm11 0v1h1v-1zm-19 5v1h1v-1zm9-22v1h1v-1zm11 0v1h1v-1zm-23 7v1h1v-1zm15-2v1h1v-1zm-15 11v1h1v-1zm23 2v1h1v-1zm-8-4v1h1v-1zm-15 11v1h1v-1zm16-28v1h1v-1zm11 0v1h1v-1zm-11 9v1h1v-1zm-12 7v1h1v-1zm23 2v1h1v-1zm-19-4v1h1v-1zm10 13v1h1v-1zm1-17v1h1v-1zm-8-4v1h1v-1zm11 0v1h1v-1zm0 9v1h1v-1zm-3 13v1h1v-1zm-16-17v1h1v-1zm19 13v1h1v-1zm-19-4v1h1v-1zm9-13v1h1v-1zm3-4v1h1v-1zm-15 11v1h1v-1zm12 2v1h1v-1zm4-12v1h1v-1zm11 0v1h1v-1zm-19 5v1h1v-1zm-1 4v1h1v-1zm19 13v1h1v-1zm-19-4v1h1v-1zm11 0v1h1v-1zm-19-4v1h1v-1zm11 0v1h1v-1zm-11 9v1h1v-1zm11 0v1h1v-1zm9-13v1h1v-1zm-8-4v1h1v-1zm11 0v1h1v-1zm-3 13v1h1v-1zm-16-17v1h1v-1zm8 13v1h1v-1zm11 0v1h1v-1zm-19-4v1h1v-1zm8 13v1h1v-1zm-8-4v1h1v-1zm-3-24v1h1v-1zm12 2v1h1v-1zm11 0v1h1v-1zm-8 5v1h1v-1zm-15 11v1h1v-1zm15-2v1h1v-1zm-1 4v1h1v-1zm-10-14v1h1v-1zm22 6v1h1v-1zm-19-4v1h1v-1zm11 0v1h1v-1zm-19-4v1h1v-1zm8 13v1h1v-1zm11 0v1h1v-1zm-8-4v1h1v-1zm8 13v1h1v-1zm-19-4v1h1v-1zm11 0v1h1v-1zm9-22v1h1v-1zm3 14v1h1v-1zm-19-4v1h1v-1zm8 13v1h1v-1zm-8-4v1h1v-1zm0 9v1h1v-1zm20-22v1h1v-1zm-23 7v1h1v-1zm25 2v1h1v-1zm-11 9v1h1v-1zm-8-4v1h1v-1zm20-4v1h1v-1zm-27-8v1h1v-1zm11 0v1h1v-1zm-3 13v1h1v-1zm-8-4v1h1v-1zm0 9v1h1v-1zm23-26v1h1v-1zm-3 13v1h1v-1zm-8-4v1h1v-1zm11 0v1h1v-1zm-1 13v1h1v-1zm-8 5v1h1v-1zm1-17v1h1v-1zm11 0v1h1v-1zm-8-4v1h1v-1zm-3 13v1h1v-1zm11 0v1h1v-1zm-19-4v1h1v-1zm8 13v1h1v-1zm3-4v1h1v-1zm9-13v1h1v-1zm0 9v1h1v-1zm-27-17v1h1v-1zm11 0v1h1v-1zm-3 13v1h1v-1zm3-4v1h1v-1zm14 11v1h1v-1zm-21-23v1h1v-1zm-1 13v1h1v-1zm0 9v1h1v-1zm12-8v1h1v-1zm11 0v1h1v-1zm-8-4v1h1v-1zm-11 9v1h1v-1zm11 9v1h1v-1zm9-22v1h1v-1zm-19-4v1h1v-1zm3 5v1h1v-1zm-11 9v1h1v-1zm11 0v1h1v-1zm14 2v1h1v-1zm-23 7v1h1v-1zm23 2v1h1v-1zm-3-24v1h1v-1zm0 9v1h1v-1zm-19-4v1h1v-1zm11 0v1h1v-1zm0 9v1h1v-1zm-11 9v1h1v-1zm23-26v1h1v-1zm-11 9v1h1v-1zm11 0v1h1v-1zm-11 9v1h1v-1zm11 0v1h1v-1zm-19-4v1h1v-1zm11 0v1h1v-1zm-12 13v1h1v-1zm15-2v1h1v-1zm-21-23v1h1v-1zm11 0v1h1v-1zm14 2v1h1v-1zm-15 11v1h1v-1zm15-2v1h1v-1zm-15 11v1h1v-1zm15-2v1h1v-1zm-22-19v1h1v-1zm0 9v1h1v-1zm11 9v1h1v-1zm12-17v1h1v-1zm-11 9v1h1v-1zm11 0v1h1v-1zm-19-4v1h1v-1zm11 0v1h1v-1zm0 9v1h1v-1zm3-7v1h1v-1zm-15 11v1h1v-1zm15-2v1h1v-1zm-11-10v1h1v-1zm-8-4v1h1v-1zm0 9v1h1v-1zm0 9v1h1v-1zm23 2v1h1v-1zm-3-24v1h1v-1zm0 9v1h1v-1zm0 9v1h1v-1zm-8-4v1h1v-1zm-11 9v1h1v-1zm11 0v1h1v-1zm3-7v1h1v-1zm11 9v1h1v-1zm-19-4v1h1v-1zm-3-15v1h1v-1zm0 18v1h1v-1zm15-2v1h1v-1zm-11-19v1h1v-1zm15-2v1h1v-1zm-23 7v1h1v-1zm23 11v1h1v-1zm-23 7v1h1v-1zm20-22v1h1v-1zm-9 19v1h1v-1zm-10-23v1h1v-1zm0 9v1h1v-1zm25 2v1h1v-1zm-11 9v1h1v-1zm-11-19v1h1v-1zm0 9v1h1v-1zm15-2v1h1v-1zm0 9v1h1v-1zm0 9v1h1v-1zm-11-28v1h1v-1zm0 9v1h1v-1zm-8 5v1h1v-1zm23 2v1h1v-1zm-3-15v1h1v-1zm2 19v1h1v-1zm-10-14v1h1v-1zm2 19v1h1v-1zm1-17v1h1v-1zm11 0v1h1v-1zm-19-4v1h1v-1zm-4 11v1h1v-1zm4-2v1h1v-1zm19 13v1h1v-1zm-22-10v1h1v-1zm15-2v1h1v-1zm-15 11v1h1v-1zm4-21v1h1v-1zm-8-4v1h1v-1zm23 2v1h1v-1zm-23 16v1h1v-1zm22-3v1h1v-1zm-23 7v1h1v-1zm12 2v1h1v-1zm11 0v1h1v-1zm-7-21v1h1v-1zm11 0v1h1v-1zm-23 7v1h1v-1zm23 2v1h1v-1zm-19-4v1h1v-1zm0 9v1h1v-1zm-4 11v1h1v-1zm4-2v1h1v-1zm-3-24v1h1v-1zm15 7v1h1v-1zm-15 11v1h1v-1zm14 2v1h1v-1zm-8 5v1h1v-1zm-10-23v1h1v-1zm11 6v1h1v-1zm11 0v1h1v-1zm-8-4v1h1v-1zm-15 11v1h1v-1zm12 2v1h1v-1zm11 0v1h1v-1zm-19-5v1h1v-1zm4-2v1h1v-1zm0 9v1h1v-1zm-3-15v1h1v-1zm2 19v1h1v-1zm12-8v1h1v-1zm-8 5v1h1v-1zm4-21v1h1v-1zm8 13v1h1v-1zm-8-4v1h1v-1zm8 13v1h1v-1zm-8-4v1h1v-1zm0 9v1h1v-1zm-11-28v1h1v-1zm23 2v1h1v-1zm-11 9v1h1v-1zm11 0v1h1v-1zm-19-4v1h1v-1zm-4 11v1h1v-1zm22-3v1h1v-1zm0 9v1h1v-1zm-21-23v1h1v-1zm13 19v1h1v-1zm-19 5v1h1v-1zm20-22v1h1v-1zm-8 5v1h1v-1zm8 13v1h1v-1zm-16-17v1h1v-1zm8 13v1h1v-1zm11 9v1h1v-1zm-19-4v1h1v-1zm20-22v1h1v-1zm0 9v1h1v-1zm-8-4v1h1v-1zm-15 11v1h1v-1zm12 2v1h1v-1zm11 0v1h1v-1zm-8-4v1h1v-1zm10 13v1h1v-1zm-21-14v1h1v-1zm3-7v1h1v-1zm-8 5v1h1v-1zm11 0v1h1v-1zm-3 13v1h1v-1zm11 0v1h1v-1zm-19-4v1h1v-1zm11 0v1h1v-1zm1-17v1h1v-1zm8 13v1h1v-1zm-16-8v1h1v-1zm8 13v1h1v-1zm-8 5v1h1v-1zm20-22v1h1v-1zm-23 7v1h1v-1zm0 9v1h1v-1zm14 2v1h1v-1zm11 0v1h1v-1zm-8 5v1h1v-1zm-10-26v1h1v-1zm11 0v1h1v-1zm8 13v1h1v-1zm-19-4v1h1v-1zm-8-4v1h1v-1zm8 13v1h1v-1zm11 0v1h1v-1zm-19-4v1h1v-1zm11 0v1h1v-1zm-3 13v1h1v-1zm11 0v1h1v-1zm-19-4v1h1v-1zm11 0v1h1v-1zm9-22v1h1v-1zm-16 1v1h1v-1zm8 13v1h1v-1zm11 0v1h1v-1zm-22-10v1h1v-1zm15-2v1h1v-1zm-1 4v1h1v-1zm11 0v1h1v-1zm-11 9v1h1v-1zm-8-4v1h1v-1zm8 13v1h1v-1zm12-26v1h1v-1zm0 9v1h1v-1zm-27-8v1h1v-1zm11 0v1h1v-1zm-3 13v1h1v-1zm11 0v1h1v-1zm-19-4v1h1v-1zm11 0v1h1v-1zm-3 13v1h1v-1zm11 0v1h1v-1zm-19-4v1h1v-1zm11 0v1h1v-1zm-11 9v1h1v-1zm20-22v1h1v-1zm-8 5v1h1v-1zm11 0v1h1v-1zm-19 5v1h1v-1zm18-1v1h1v-1zm0 9v1h1v-1zm-19-4v1h1v-1zm11 0v1h1v-1zm12-17v1h1v-1zm-11 9v1h1v-1zm-8-4v1h1v-1z"/></svg>
