<svg viewBox="0 0 49 49" xmlns="http://www.w3.org/2000/svg"><path d="m19 25v1h1v-1zm3-4v1h1v-1zm-11 9v1h1v-1zm11 0v1h1v-1zm-3 13v1h1v-1zm11 0v1h1v-1zm-18-39v1h1v-1zm11 0v1h1v-1zm-11 9v1h1v-1zm11 0v1h1v-1zm-19-4v1h1v-1zm19 13v1h1v-1zm-19-4v1h1v-1zm11 0v1h1v-1zm-11 9v1h1v-1zm11 0v1h1v-1zm22 6v1h1v-1zm-29-27v1h1v-1zm30 1v1h1v-1zm-32 29v1h1v-1zm20-22v1h1v-1zm12 2v1h1v-1zm-31-6v1h1v-1zm31 15v1h1v-1zm-31-6v1h1v-1zm11 0v1h1v-1zm20 15v1h1v-1zm-31-6v1h1v-1zm11 0v1h1v-1zm8 13v1h1v-1zm15-2v1h1v-1zm1-35v1h1v-1zm-23 7v1h1v-1zm11 0v1h1v-1zm12 2v1h1v-1zm-20-6v1h1v-1zm20 15v1h1v-1zm-20 3v1h1v-1zm12-17v1h1v-1zm-30-4v1h1v-1zm6 34v1h1v-1zm24-21v1h1v-1zm-9 19v1h1v-1zm19 4v1h1v-1zm-40-27v1h1v-1zm10 13v1h1v-1zm15-2v1h1v-1zm-3-15v1h1v-1zm-20 31v1h1v-1zm12-35v1h1v-1zm23 2v1h1v-1zm-15 11v1h1v-1zm12 2v1h1v-1zm-31-6v1h1v-1zm31 15v1h1v-1zm-31-6v1h1v-1zm11 0v1h1v-1zm0 9v1h1v-1zm-11 9v1h1v-1zm12-35v1h1v-1zm11 0v1h1v-1zm12 2v1h1v-1zm-2 30v1h1v-1zm-22 3v1h1v-1zm1-26v1h1v-1zm11 0v1h1v-1zm0 9v1h1v-1zm-9 19v1h1v-1zm11 0v1h1v-1zm12-17v1h1v-1zm0 9v1h1v-1zm-34 7v1h1v-1zm34 2v1h1v-1zm-19-4v1h1v-1zm12-26v1h1v-1zm0 9v1h1v-1zm-31-6v1h1v-1zm8 13v1h1v-1zm-8-4v1h1v-1zm23 2v1h1v-1zm-15 11v1h1v-1zm24-33v1h1v-1zm-1 35v1h1v-1zm-8-4v1h1v-1zm-3-24v1h1v-1zm-20 31v1h1v-1zm35-24v1h1v-1zm-15 11v1h1v-1zm-19-4v1h1v-1zm11 0v1h1v-1zm12-17v1h1v-1zm-9 19v1h1v-1zm11 0v1h1v-1zm-10-23v1h1v-1zm18 36v1h1v-1zm-8-4v1h1v-1zm-21-23v1h1v-1zm11 0v1h1v-1zm11-3v1h1v-1zm11 0v1h1v-1zm-31 31v1h1v-1zm31-22v1h1v-1zm-19-4v1h1v-1zm-15 11v1h1v-1zm23 2v1h1v-1zm11 0v1h1v-1zm-30-23v1h1v-1zm15-2v1h1v-1zm-15 11v1h1v-1zm23 2v1h1v-1zm-31-6v1h1v-1zm23 2v1h1v-1zm-15 11v1h1v-1zm23 2v1h1v-1zm-31-6v1h1v-1zm32-11v1h1v-1zm-31-6v1h1v-1zm11 0v1h1v-1zm23 2v1h1v-1zm-15 11v1h1v-1zm10 23v1h1v-1zm-18-27v1h1v-1zm0 9v1h1v-1zm22-3v1h1v-1zm0 9v1h1v-1zm-19-4v1h1v-1zm11 0v1h1v-1zm8 13v1h1v-1zm-31-6v1h1v-1zm23 2v1h1v-1zm-19-4v1h1v-1zm19 13v1h1v-1zm1-35v1h1v-1zm11 0v1h1v-1zm-34 7v1h1v-1zm23 2v1h1v-1zm11 0v1h1v-1zm-11 9v1h1v-1zm11 0v1h1v-1zm-19-4v1h1v-1zm-15 11v1h1v-1zm23 2v1h1v-1zm11 0v1h1v-1zm-19-4v1h1v-1zm-15 11v1h1v-1zm-4-34v1h1v-1zm18 36v1h1v-1zm-10-23v1h1v-1zm23 2v1h1v-1zm-20 9v1h1v-1zm11 0v1h1v-1zm-21-23v1h1v-1zm29 36v1h1v-1zm-31-6v1h1v-1zm34 2v1h1v-1zm1-26v1h1v-1zm-8-4v1h1v-1zm8 13v1h1v-1zm-8-4v1h1v-1zm-23 7v1h1v-1zm12 2v1h1v-1zm19 13v1h1v-1zm-27-17v1h1v-1zm8 13v1h1v-1zm11 0v1h1v-1zm-19-4v1h1v-1zm-4 11v1h1v-1zm1-35v1h1v-1zm0 9v1h1v-1zm34 2v1h1v-1zm0 9v1h1v-1zm-19-4v1h1v-1zm-15 11v1h1v-1zm33-3v1h1v-1zm-14-29v1h1v-1zm-5 34v1h1v-1zm-10-23v1h1v-1zm15-2v1h1v-1zm7-1v1h1v-1zm-20 31v1h1v-1zm11 0v1h1v-1zm9-22v1h1v-1zm-8-4v1h1v-1zm8 13v1h1v-1zm-19-4v1h1v-1zm19 13v1h1v-1zm-16-17v1h1v-1zm-15 11v1h1v-1zm15-2v1h1v-1zm0 9v1h1v-1zm1-35v1h1v-1zm11 9v1h1v-1zm8 22v1h1v-1zm-8-4v1h1v-1zm-11 9v1h1v-1zm12-35v1h1v-1zm-23-2v1h1v-1zm34 2v1h1v-1zm-31 31v1h1v-1zm31-22v1h1v-1zm-34 7v1h1v-1zm14 2v1h1v-1zm19 13v1h1v-1zm-19-4v1h1v-1zm11 0v1h1v-1zm-21-23v1h1v-1zm2 19v1h1v-1zm11 0v1h1v-1zm-21-23v1h1v-1zm18 36v1h1v-1zm11 0v1h1v-1zm-8-4v1h1v-1zm-21-23v1h1v-1zm11-3v1h1v-1zm22 0v1h1v-1zm-34 7v1h1v-1zm12 2v1h1v-1zm11 0v1h1v-1zm-8-4v1h1v-1zm19 4v1h1v-1zm-22 9v1h1v-1zm22 0v1h1v-1zm-3 4v1h1v-1zm-16-8v1h1v-1zm-3 13v1h1v-1zm23-35v1h1v-1zm-8 5v1h1v-1zm-19-4v1h1v-1zm-4 11v1h1v-1zm23 2v1h1v-1zm-19-4v1h1v-1zm-4 11v1h1v-1zm4-2v1h1v-1zm-4 11v1h1v-1zm1-26v1h1v-1zm34 2v1h1v-1zm-19-4v1h1v-1zm6 34v1h1v-1zm-27 1v1h1v-1zm11 0v1h1v-1zm20-22v1h1v-1zm-11 9v1h1v-1zm19 13v1h1v-1zm-16-17v1h1v-1zm-3 13v1h1v-1zm11 0v1h1v-1zm-19-4v1h1v-1zm20-22v1h1v-1zm-28 18v1h1v-1zm19 13v1h1v-1zm1-35v1h1v-1zm-20 31v1h1v-1zm20-22v1h1v-1zm8 13v1h1v-1zm-16-8v1h1v-1zm20-13v1h1v-1zm-20 31v1h1v-1zm12-35v1h1v-1zm0 9v1h1v-1zm-19-4v1h1v-1zm-4 11v1h1v-1zm4-2v1h1v-1zm18 8v1h1v-1zm0 9v1h1v-1zm0 9v1h1v-1zm-27-8v1h1v-1zm31-22v1h1v-1zm8 13v1h1v-1zm-27-17v1h1v-1zm27 26v1h1v-1zm-27-17v1h1v-1zm11 0v1h1v-1zm-3 13v1h1v-1zm-8-4v1h1v-1zm11 0v1h1v-1zm-3 13v1h1v-1zm12-35v1h1v-1zm-1 35v1h1v-1zm-7-30v1h1v-1zm-20 31v1h1v-1zm12-35v1h1v-1zm18 36v1h1v-1zm-33-25v1h1v-1zm12 2v1h1v-1zm11 0v1h1v-1zm0 9v1h1v-1zm11 0v1h1v-1zm-34 7v1h1v-1zm16-28v1h1v-1zm-8-4v1h1v-1zm6 34v1h1v-1zm23 2v1h1v-1zm-29-27v1h1v-1zm9 30v1h1v-1zm9-22v1h1v-1zm0 9v1h1v-1zm-8-4v1h1v-1zm11 0v1h1v-1zm-3 13v1h1v-1zm12-35v1h1v-1zm-20 31v1h1v-1zm20-22v1h1v-1zm-39 18v1h1v-1zm8 13v1h1v-1zm12-35v1h1v-1zm-1 35v1h1v-1zm-19-4v1h1v-1zm30 4v1h1v-1zm1-26v1h1v-1zm8 13v1h1v-1zm-16-17v1h1v-1zm-3 13v1h1v-1zm-16-17v1h1v-1zm27 17v1h1v-1zm-19-4v1h1v-1zm11 9v1h1v-1zm9-22v1h1v-1zm-28 18v1h1v-1zm8 13v1h1v-1zm-11-37v1h1v-1zm12 2v1h1v-1zm10 35v1h1v-1zm11-3v1h1v-1zm-33-25v1h1v-1zm12 2v1h1v-1zm11 0v1h1v-1zm-8-4v1h1v-1zm19 4v1h1v-1zm-34 7v1h1v-1zm36 21v1h1v-1zm-21-23v1h1v-1zm22-3v1h1v-1zm0 9v1h1v-1zm-23 7v1h1v-1zm-10-23v1h1v-1zm10 32v1h1v-1zm12-35v1h1v-1zm0 9v1h1v-1zm-8-4v1h1v-1zm8 13v1h1v-1zm-27-17v1h1v-1zm8 13v1h1v-1zm22 0v1h1v-1zm-3 13v1h1v-1zm-16-17v1h1v-1zm-3 13v1h1v-1zm11 0v1h1v-1zm8 13v1h1v-1zm-16-17v1h1v-1zm19 13v1h1v-1zm1-26v1h1v-1zm8 13v1h1v-1zm-39 18v1h1v-1zm11 0v1h1v-1zm9-22v1h1v-1zm11 0v1h1v-1zm-19-4v1h1v-1zm-8-4v1h1v-1zm8 13v1h1v-1zm11 0v1h1v-1zm9-22v1h1v-1zm-28 18v1h1v-1zm30 1v1h1v-1zm0 9v1h1v-1zm-10-23v1h1v-1zm11 0v1h1v-1zm2 19v1h1v-1zm-15 11v1h1v-1zm-19-4v1h1v-1zm34 2v1h1v-1zm1-26v1h1v-1zm-23 7v1h1v-1zm23 2v1h1v-1zm-20 3v1h1v-1zm8 13v1h1v-1zm-19-4v1h1v-1zm11 0v1h1v-1zm0 9v1h1v-1zm1-35v1h1v-1zm11 0v1h1v-1zm-11 9v1h1v-1zm8 13v1h1v-1zm-27-17v1h1v-1zm8 13v1h1v-1zm22 0v1h1v-1zm-22 9v1h1v-1zm22 0v1h1v-1zm-30-4v1h1v-1zm11 0v1h1v-1zm20-22v1h1v-1zm-31 31v1h1v-1zm31-22v1h1v-1zm2 19v1h1v-1zm-10-23v1h1v-1zm0 9v1h1v-1zm-19-4v1h1v-1zm30 1v1h1v-1zm-12 7v1h1v-1zm12 2v1h1v-1zm3-4v1h1v-1zm-34 7v1h1v-1zm0 9v1h1v-1zm35-33v1h1v-1zm-1 35v1h1v-1zm-22-28v1h1v-1zm11 0v1h1v-1zm-8-4v1h1v-1zm-3 13v1h1v-1zm11 0v1h1v-1zm-19-4v1h1v-1zm8 13v1h1v-1zm23 2v1h1v-1zm-23 7v1h1v-1zm3-4v1h1v-1zm9-22v1h1v-1zm-8-4v1h1v-1zm-19-4v1h1v-1zm19 13v1h1v-1zm-19-4v1h1v-1zm30 13v1h1v-1zm-19 5v1h1v-1zm22-3v1h1v-1zm-10-23v1h1v-1zm-19-4v1h1v-1zm30 1v1h1v-1zm-24 33v1h1v-1zm23 2v1h1v-1zm-29-27v1h1v-1zm33-3v1h1v-1zm-15 11v1h1v-1zm12 2v1h1v-1zm-31-6v1h1v-1zm11 0v1h1v-1zm23 2v1h1v-1zm-15 11v1h1v-1zm12 2v1h1v-1zm-20-6v1h1v-1zm8 13v1h1v-1zm-19-4v1h1v-1zm11 0v1h1v-1zm-11 9v1h1v-1zm12-35v1h1v-1zm-1 35v1h1v-1zm4-39v1h1v-1zm-11 9v1h1v-1zm11 0v1h1v-1zm-3 13v1h1v-1zm-8-4v1h1v-1zm11 0v1h1v-1zm-3 13v1h1v-1zm11 0v1h1v-1zm-18-30v1h1v-1zm22 0v1h1v-1zm10 32v1h1v-1zm-32-23v1h1v-1zm25 2v1h1v-1zm-23 7v1h1v-1zm23 11v1h1v-1zm0 9v1h1v-1zm1-35v1h1v-1zm-32 29v1h1v-1zm23 2v1h1v-1zm-3-24v1h1v-1zm12 2v1h1v-1zm3-4v1h1v-1zm-34 7v1h1v-1zm34 2v1h1v-1zm-15 11v1h1v-1zm-8 5v1h1v-1zm1-35v1h1v-1zm23 2v1h1v-1zm-23 7v1h1v-1zm3-4v1h1v-1zm-3 13v1h1v-1zm-8-4v1h1v-1zm11 0v1h1v-1zm22 6v1h1v-1zm-11 9v1h1v-1zm1-23v1h1v-1zm-9 19v1h1v-1zm-21-23v1h1v-1zm11 0v1h1v-1zm-5 34v1h1v-1zm15-2v1h1v-1zm19 4v1h1v-1zm-15-34v1h1v-1zm-15 20v1h1v-1zm24-24v1h1v-1zm-32 29v1h1v-1zm32-20v1h1v-1zm-32 29v1h1v-1zm1-35v1h1v-1zm31 15v1h1v-1zm-20-6v1h1v-1zm8 13v1h1v-1zm-8 5v1h1v-1zm22-3v1h1v-1zm-10-23v1h1v-1zm-8-4v1h1v-1zm18 36v1h1v-1zm-10-23v1h1v-1zm2 19v1h1v-1zm-10-23v1h1v-1zm0 9v1h1v-1zm-9 19v1h1v-1zm-3-15v1h1v-1zm15-2v1h1v-1zm0 9v1h1v-1zm-15 11v1h1v-1zm15-2v1h1v-1zm-11-37v1h1v-1zm0 9v1h1v-1zm-8-4v1h1v-1zm31 15v1h1v-1zm-31-6v1h1v-1zm8 13v1h1v-1zm23 2v1h1v-1zm-23 7v1h1v-1zm24-33v1h1v-1zm-9 31v1h1v-1zm12-35v1h1v-1zm-5 34v1h1v-1zm-10-23v1h1v-1zm-8-4v1h1v-1zm-1 32v1h1v-1zm22 0v1h1v-1zm-32-23v1h1v-1zm11 9v1h1v-1zm22-3v1h1v-1zm-19-4v1h1v-1zm19 13v1h1v-1zm-18-27v1h1v-1zm-9 19v1h1v-1zm27 17v1h1v-1zm-31-6v1h1v-1zm35-33v1h1v-1zm-23 35v1h1v-1zm-11-28v1h1v-1zm34 2v1h1v-1zm-34 16v1h1v-1zm34 2v1h1v-1zm-19-4v1h1v-1zm-15 11v1h1v-1zm4-21v1h1v-1zm-8-4v1h1v-1zm23 2v1h1v-1zm-15 11v1h1v-1zm-8-4v1h1v-1zm20-13v1h1v-1zm-9 19v1h1v-1zm-11 12v1h1v-1zm1-35v1h1v-1zm34 2v1h1v-1zm-5 34v1h1v-1zm-19-4v1h1v-1zm11 0v1h1v-1zm-10-23v1h1v-1zm14 2v1h1v-1zm8 13v1h1v-1zm0 9v1h1v-1zm-31-6v1h1v-1zm23 2v1h1v-1zm-22-28v1h1v-1zm23 2v1h1v-1zm11 0v1h1v-1zm-34 7v1h1v-1zm34 2v1h1v-1zm-19-4v1h1v-1zm19 13v1h1v-1zm-19-4v1h1v-1zm-15 11v1h1v-1zm15-2v1h1v-1zm-15 11v1h1v-1zm4-21v1h1v-1zm-8-4v1h1v-1zm0 9v1h1v-1zm30 10v1h1v-1zm-19-4v1h1v-1zm22 0v1h1v-1zm-21-23v1h1v-1zm22-3v1h1v-1zm-20 31v1h1v-1zm1-26v1h1v-1zm-8-4v1h1v-1zm19 13v1h1v-1zm8 13v1h1v-1zm-27-17v1h1v-1zm8 13v1h1v-1zm-8-4v1h1v-1zm8 13v1h1v-1zm12-35v1h1v-1zm11 0v1h1v-1zm-12 35v1h1v-1zm1-26v1h1v-1zm-23 7v1h1v-1zm23 2v1h1v-1zm11 0v1h1v-1zm-19-4v1h1v-1zm-1 13v1h1v-1zm-18-27v1h1v-1zm23 2v1h1v-1zm-15 11v1h1v-1zm13 19v1h1v-1zm-3 4v1h1v-1zm-18-27v1h1v-1zm29 27v1h1v-1zm-27 1v1h1v-1zm9-22v1h1v-1zm11 0v1h1v-1zm11 0v1h1v-1zm-19-4v1h1v-1zm-3 13v1h1v-1zm22 0v1h1v-1zm-11 9v1h1v-1zm-8-4v1h1v-1zm-15 11v1h1v-1zm4-30v1h1v-1zm12 2v1h1v-1zm-12 7v1h1v-1zm23 2v1h1v-1zm-19-4v1h1v-1zm8 13v1h1v-1zm-8-4v1h1v-1zm-3-24v1h1v-1zm23 2v1h1v-1zm11 0v1h1v-1zm-19-4v1h1v-1zm6 34v1h1v-1zm13-21v1h1v-1zm-34 7v1h1v-1zm24 19v1h1v-1zm1-17v1h1v-1zm-11 9v1h1v-1zm11 0v1h1v-1zm-8-4v1h1v-1zm-21-23v1h1v-1zm30 1v1h1v-1zm-28 18v1h1v-1zm8 13v1h1v-1zm11 0v1h1v-1zm-3 4v1h1v-1zm-16-8v1h1v-1zm9-22v1h1v-1zm3-4v1h1v-1zm-15 11v1h1v-1zm12 2v1h1v-1zm11 0v1h1v-1zm8 13v1h1v-1zm-19-4v1h1v-1zm22 0v1h1v-1zm-19-4v1h1v-1zm8 13v1h1v-1zm12-35v1h1v-1zm-20 31v1h1v-1zm-7-30v1h1v-1zm-4 11v1h1v-1zm12 2v1h1v-1zm11 0v1h1v-1zm-23 16v1h1v-1zm1-26v1h1v-1zm15-2v1h1v-1zm6 34v1h1v-1zm-19-4v1h1v-1zm11 0v1h1v-1zm11 0v1h1v-1zm9-22v1h1v-1zm-39 18v1h1v-1zm31-22v1h1v-1zm8 13v1h1v-1zm-39 18v1h1v-1zm20-22v1h1v-1zm11 0v1h1v-1zm0 9v1h1v-1zm-19-4v1h1v-1zm11 0v1h1v-1zm9-22v1h1v-1zm-28 18v1h1v-1zm28-9v1h1v-1zm-28 18v1h1v-1zm20-22v1h1v-1zm-20 31v1h1v-1zm12-35v1h1v-1zm-3 13v1h1v-1zm11 0v1h1v-1zm11 0v1h1v-1zm-19-4v1h1v-1zm-15 11v1h1v-1zm12 2v1h1v-1zm22 0v1h1v-1zm-34 7v1h1v-1zm34 2v1h1v-1zm1-26v1h1v-1zm-31-6v1h1v-1zm23 2v1h1v-1zm-19 14v1h1v-1zm18 8v1h1v-1zm-21-23v1h1v-1zm13 19v1h1v-1zm8 13v1h1v-1zm-19-4v1h1v-1zm22 0v1h1v-1zm-30-4v1h1v-1zm8 13v1h1v-1zm12-35v1h1v-1zm-1 35v1h1v-1zm-19-4v1h1v-1zm11 0v1h1v-1zm20-22v1h1v-1zm-19-4v1h1v-1zm11 0v1h1v-1zm-3 13v1h1v-1zm-16-17v1h1v-1zm27 17v1h1v-1zm-19-4v1h1v-1zm8 13v1h1v-1zm-16-17v1h1v-1zm27 17v1h1v-1zm-8-4v1h1v-1zm-19-4v1h1v-1zm19 13v1h1v-1zm-10-35v1h1v-1zm22 0v1h1v-1zm-1 32v1h1v-1zm-21-23v1h1v-1zm11 0v1h1v-1zm11 0v1h1v-1zm-19-4v1h1v-1zm-12 35v1h1v-1zm9-22v1h1v-1zm24 19v1h1v-1zm-21-23v1h1v-1zm-15 11v1h1v-1zm15-2v1h1v-1zm-1 4v1h1v-1zm11 0v1h1v-1zm12 11v1h1v-1zm-31-6v1h1v-1zm11 0v1h1v-1zm9-22v1h1v-1zm-19-4v1h1v-1zm0 9v1h1v-1zm22 9v1h1v-1zm-3 13v1h1v-1zm-16-17v1h1v-1zm-3 13v1h1v-1zm11 0v1h1v-1zm11 0v1h1v-1zm-19-4v1h1v-1zm28-9v1h1v-1zm-39 18v1h1v-1zm11 0v1h1v-1zm9-22v1h1v-1zm11 0v1h1v-1zm-19-4v1h1v-1zm11 0v1h1v-1zm-3 13v1h1v-1zm11 0v1h1v-1zm-19-4v1h1v-1zm11 0v1h1v-1zm-19-4v1h1v-1zm8 13v1h1v-1zm11 0v1h1v-1zm-19-4v1h1v-1zm30 1v1h1v-1zm-12 7v1h1v-1zm12 2v1h1v-1zm-33-16v1h1v-1zm13 19v1h1v-1zm24-33v1h1v-1zm-12 16v1h1v-1zm-11 9v1h1v-1zm11 0v1h1v-1zm4-30v1h1v-1zm-3 13v1h1v-1zm-8-4v1h1v-1zm11 0v1h1v-1zm-3 13v1h1v-1zm-27-17v1h1v-1zm30 13v1h1v-1zm-30-4v1h1v-1zm8 13v1h1v-1zm22 0v1h1v-1zm9-22v1h1v-1zm-8-4v1h1v-1zm8 13v1h1v-1zm-28 18v1h1v-1zm9-22v1h1v-1zm11 0v1h1v-1zm0 9v1h1v-1zm-27-17v1h1v-1zm0 18v1h1v-1zm30 1v1h1v-1zm-12 7v1h1v-1zm12 2v1h1v-1zm-33-25v1h1v-1zm36 21v1h1v-1zm-21-23v1h1v-1zm18 36v1h1v-1zm-31-6v1h1v-1zm11 0v1h1v-1zm24-24v1h1v-1zm-12 7v1h1v-1zm-8-4v1h1v-1zm-3 13v1h1v-1zm11 0v1h1v-1zm-19-4v1h1v-1zm11 0v1h1v-1zm0 9v1h1v-1zm-10-26v1h1v-1zm19 13v1h1v-1zm-27-17v1h1v-1zm11 0v1h1v-1zm-3 13v1h1v-1zm11 0v1h1v-1zm-19-4v1h1v-1zm11 0v1h1v-1zm19 13v1h1v-1zm-30-4v1h1v-1zm30 13v1h1v-1zm-19-4v1h1v-1zm9-22v1h1v-1zm3-4v1h1v-1zm2 28v1h1v-1zm-21-14v1h1v-1zm30 10v1h1v-1zm-31-6v1h1v-1zm34 2v1h1v-1zm-15 11v1h1v-1zm-19-4v1h1v-1zm11 0v1h1v-1zm23 2v1h1v-1zm-34 7v1h1v-1zm12-35v1h1v-1zm11 0v1h1v-1zm12 11v1h1v-1zm-31-6v1h1v-1z"/></svg>
