<svg viewBox="0 0 24 24" xmlns="http://www.w3.org/2000/svg"><path d="m10.575 1.695c-2.634 0-4.756 2.453-4.756 5.502v4.6l-.027-.003v4.71c0 3.05 2.123 5.502 4.757 5.502h2.286c2.634 0 4.757-2.453 4.757-5.502v-4.6a5.1 5.1 0 0 0 .026.003v-4.71c0-3.049-2.122-5.502-4.756-5.502h-2.287z" fill="#73cddc"/><rect fill="#73cddc" height="3.335" ry="1.125" transform="matrix(.4849 -.87457 .85979 .51065 0 0)" width="2.289" x="-1.178" y="6.092"/><rect fill="#73cddc" height="3.39" ry="1.143" transform="matrix(.44646 .8948 -.89204 .45195 0 0)" width="2.297" x="10.261" y="-15.076"/><circle cx="9.267" cy="5.13" fill="#fff" r="2.054" stroke="#5e5d5b" stroke-width=".1"/><circle cx="14.214" cy="5.116" fill="#fff" r="2.054" stroke="#5e5d5b" stroke-width=".1"/><ellipse cx="8.039" cy="5.051" fill="#030d18" rx=".792" ry=".901"/><path d="m11.792 9.556.763.138a.403.689 0 0 1 .008.138.403.689 0 0 1 -.402.69.403.689 0 0 1 -.404-.69.403.689 0 0 1 .035-.276z" fill="#fff" stroke="#fff" stroke-width=".155"/><ellipse cx="8.51" cy="5.365" fill="#fff" rx=".138" ry=".166"/><ellipse cx="12.945" cy="5.189" fill="#030d18" rx=".792" ry=".901"/><ellipse cx="13.414" cy="5.446" fill="#fff" rx=".138" ry=".166"/><ellipse cx="-12.982" cy="-3.409" fill="#f6d2a1" rx=".708" ry="1.026" stroke-width=".4" transform="matrix(-.63477097 -.77270034 .77270034 -.63477097 0 0)"/><path d="m11.772 9.553-.757.135a.4.672 0 0 0 -.008.135.4.672 0 0 0 .4.672.4.672 0 0 0 .4-.672.4.672 0 0 0 -.035-.27z" fill="#fff" stroke="#fff" stroke-width=".153"/><g fill="#f6d2a1"><ellipse cx="1.841" cy="-21.563" rx=".707" ry="1.026" stroke-width=".4" transform="matrix(.63477097 -.77270034 -.77270034 -.63477097 0 0)"/><ellipse cx="-17.281" cy="-21.784" rx=".864" ry="1.27" stroke-width=".4" transform="matrix(.3054 -.95222 -.97065 -.2405 0 0)"/><ellipse cx="22.885" cy="2.587" rx=".864" ry="1.27" stroke-width=".4" transform="matrix(.22652 .974 .95652 -.29167 0 0)"/><path d="m10.708 8.392a.594.594 0 0 0 -.594.597v.115c0 .331.264.598.594.598h.386a.973.772 0 0 1 .697-.235.973.772 0 0 1 .698.235h.334c.33 0 .594-.267.594-.598v-.114a.595.595 0 0 0 -.594-.597h-2.115z" stroke="#657075" stroke-width=".1"/></g><ellipse cx="11.734" cy="8.203" fill="#030d18" rx="1.208" ry=".68" stroke="#fff" stroke-width=".162"/></svg>