<svg height="270" width="356" xmlns="http://www.w3.org/2000/svg" xmlns:xlink="http://www.w3.org/1999/xlink"><g transform="translate(0 -450)"><path d="m1600.9581-1.7007338c43.6386 0 111.0986-22.4119402 133-68.0000002l31-86.999996 14-59-24 10c-6.5627-6.64067-11.242-11.8105-28-21l-16-33-27 21c-18.1706-4.32547-36.2371-8.85903-57-8l-26-25-26 25c-20.7628-.85903-38.8294 3.67453-57 8l-27-21-16 33c-16.758 9.1895-21.4373 14.35933-28 21l-24-10 14 59 31 86.999996c21.9015 45.58806 89.3614 68.0000002 133 68.0000002m133-132.9999962c-10.7606-35.73309-78.4635-65-133-65s-122.2393 29.26691-133 65" fill="none" stroke="#ff0404" stroke-width="5"/><path d="m1440.9581-158.70073 12 29 15-4 27 34.999996 37 11 69-38.999996 69 38.999996 37-11 27-34.999996 15 4 12-29" fill="none" stroke="#04ff15" stroke-width="5"/><g transform="translate(-462 41)"><path d="m773 548c-10.76065-35.73309-66.4635-67-133-67-67.86983 0-122.23935 31.26691-133 67l-12.83333 11-18.16667-35-14-59 24 10c6.56269-6.64067 11.24201-11.8105 28-21l16-33 27 21c18.1706-4.32547 36.23715-8.85903 57-8l26-25 26 25c20.76285-.85903 38.8294 3.67453 57 8l27-21 16 33c16.75799 9.1895 21.43731 14.35933 28 21l24-10-14 59-18.16667 35z" fill="#efc743"/><path d="m788 551-15-4-27 35-37 11-69-39-69 39-37-11-27-35-15 4-16-28 31 88c21.90144 45.58806 89.3614 68 133 68s111.09856-22.41194 133-68l31-88z"/></g><g id="a" transform="translate(440 30)"><path d="m640-331.40625-29.0625 27.96875-54.43445 5.59386-30.2218-20.75011-18.0625 37.34375-25.98045 17.45723-30.9258-13.80098 18.89956 77.70199 30.03794 84.14176 49.875 46.125 89.875 26.125m0-16-82.04688-22.734375-44.04687-39.734375-31.56245-89.78885-10.62505-42.64865 16.73083 7.60705 31.26917-23.7633 13-26.84375 22.45413 15.30877 61.70212-9.27752 23.125-22.21875" fill="#efc743"/><path d="m640-256.5-67.80984 15.31673-59.80984 39.31673 63.80984-29.81673 63.80984-9.81673" fill="#efc743"/><path d="m640-199.23826s-42.50329 30.66502-62.87261 46.27973l-28.40224-5.45606-25.70529-31.29046-12.08008 3.23072-23.76686-27.02567 15.81648 43.09499 14.83322-3.96114 22.86787 29.63834 38.0944 11.32156 61.21511-41.58275"/></g><use height="720" transform="matrix(-1 0 0 1 2160 0)" width="1280" xlink:href="#a"/><g id="b" transform="translate(0 30)"><path d="m640-331.40625c-9.67956 9.33117-19.37553 18.64528-29.0625 27.96875l-54.43445 5.59386c-9.74043-7.58358-19.47604-15.17337-29.2218-22.75011-6.36022 13.11165-19.0625 39.34375-19.0625 39.34375l-24.98045 18.45723s-23.28589-11.19579-31.9258-14.80098c6.41263 25.86565 11.70188 52.06462 18.89956 77.70199 10.51727 28.77331 20.11931 57.9414 31.20142 86.47101 17.02296 43.218211 80.67953 66.580231 138.58652 66.580231m0-14.77108c-55.93839 0-111.88237-23.448477-126.87478-56.437001-8.79595-25.49734-22.6515-68.01475-30.78142-93.709-3.20835-13.54955-7.4167-29.0991-10.62505-42.64865 5.16257 1.46985 16.73083 7.60705 16.73083 7.60705l31.26917-23.7633s7.67016-19.89415 12-28.84375c7.83702 4.54626 14.75731 13.49638 22.45413 17.30877l62.70212-9.27752c7.71168-7.40276 15.41618-14.81301 23.125-22.21875" fill="#efc743"/><path d="m640-256.5c-28.60987 0-59.96593 7.54068-86.09375 19.8125s-41.52593 34.82096-41.52593 34.82096 23.85303-13.96355 47.90093-25.25846 53.79212-14.375 79.71875-14.375" fill="#efc743"/><path d="m640-199.23826s-46.52915 33.75116-62.87261 46.27973c-9.46741-1.81869-18.93483-3.63737-28.40224-5.45606-8.54394-10.4498-17.33222-20.7036-25.70529-31.29046-4.02883 1.0689-8.05397 2.15164-12.08008 3.23072-7.92229-9.00856-15.84457-18.01711-23.76686-27.02567 5.33219 14.34168 10.03561 28.92754 15.81648 43.09499 4.94665-1.31198 9.88964-2.63767 14.83322-3.96114 7.62224 9.87974 15.24766 19.75703 22.86787 29.63834 12.70226 3.75985 25.39796 7.54203 38.0944 11.32156 20.6706-13.43353 40.76669-27.79166 61.21511-41.58275"/></g><use height="720" transform="matrix(-1 0 0 1 1280 0)" width="1280" xlink:href="#b"/><g transform="translate(980.93669 -340.47192)"><path d="m773 533-49.5-36.5-83.5-15.5-83.5 15.5-49.5 36.5-12.83333 26-18.16667-35-14-59 24 10 28-21 16-33 27 21 57-8 26-25 26 25 57 8 27-21 16 33 28 21 24-10-14 59-18.16667 35z" fill="#efc743"/><path d="m788 551-15-4-27 35-37 11-69-39-69 39-37-11-27-35-15 4-16-28 31 88 46.5 44 86.5 24 86.5-24 46.5-44 31-88z"/></g><g transform="translate(445.83337)"><path d="m1733 533-49.5-36.5-83.5-15.5-83.5 15.5-49.5 36.5-12.8333 26-18.1667-35-14-59 24 10 28-21 16-33 27 21 57-8 26-25 26 25 57 8 27-21 16 33 28 21 24-10-14 59-18.1667 35z" fill="#efc743"/><path d="m1436 523 31 88 46.5 44 68.125 18.90625-25.0312-99.0625-25.5938 18.15625-37-11-27-35-15 4zm328 0-16 28-15-4-27 35-37 11-25.5938-18.15625-25.0312 99.0625 68.125-18.90625 46.5-44z"/><path d="m1560.3486 567.5 11.8257-36.57438 27.8257-26.57438 27.8257 26.57438 11.8257 36.57438-19.8257-21.99302-19.8257-12.99302-19.8257 12.99302z"/></g><g transform="translate(10.625)"><path d="m1733 533-49.5-36.5-83.5-15.5-83.5 15.5-49.5 36.5-12.8333 26-18.1667-35-14-59 24 10 28-21 16-33 27 21 57-8 26-25 26 25 57 8 27-21 16 33 28 21 24-10-14 59-18.1667 35z" fill="#efc743"/><path d="m1436 523 31 88 46.5 44 68.125 18.90625-25.0312-99.0625-25.5938 18.15625-37-11-27-35-15 4zm328 0-16 28-15-4-27 35-37 11-25.5938-18.15625-25.0312 99.0625 68.125-18.90625 46.5-44z"/></g><g transform="translate(1316.25)"><path d="m1733 533-49.5-36.5-83.5-15.5-83.5 15.5-49.5 36.5-12.8333 26-18.1667-35-14-59 24 10 28-21 16-33 27 21 57-8 26-25 26 25 57 8 27-21 16 33 28 21 24-10-14 59-18.1667 35z" fill="#efc743"/><path d="m1436 523 31 88 46.5 44 68.125 18.90625-25.0312-99.0625-25.5938 18.15625-37-11-27-35-15 4zm328 0-16 28-15-4-27 35-37 11-25.5938-18.15625-25.0312 99.0625 68.125-18.90625 46.5-44z"/><path d="m1571.5986 582.05774 8.4705-27.40787 19.9309-23.3673 19.9309 23.3673 8.4705 27.40787-28.4014 102.27489z"/></g><g transform="translate(881.04175)"><path d="m1733 533-49.5-36.5-83.5-15.5-83.5 15.5-49.5 36.5-12.8333 26-18.1667-35-14-59 24 10 28-21 16-33 27 21 57-8 26-25 26 25 57 8 27-21 16 33 28 21 24-10-14 59-18.1667 35z" fill="#efc743"/><path d="m1436 523 31 88 46.5 44 68.125 18.90625-25.0312-99.0625-25.5938 18.15625-37-11-27-35-15 4zm328 0-16 28-15-4-27 35-37 11-25.5938-18.15625-25.0312 99.0625 68.125-18.90625 46.5-44z"/><path d="m1560.3486 567.5 11.8257-36.57438 27.8257-26.57438 27.8257 26.57438 11.8257 36.57438-19.8257-21.99302-19.8257-12.99302-19.8257 12.99302z"/><path d="m1573.8486 585.6771 7.7995-19.51733 18.3519-14.8772 18.3519 14.8772 7.7995 19.51733-26.1514 105.15553z"/></g></g></svg>