<?xml version="1.0" encoding="UTF-8" standalone="no"?>
<!-- Generator: Adobe Illustrator 21.1.0, SVG Export Plug-In . SVG Version: 6.00 Build 0)  -->

<svg
   version="1.1"
   id="Layer_1"
   x="0px"
   y="0px"
   viewBox="0 0 103.4 103.4"
   xml:space="preserve"
   sodipodi:docname="odysee.svg"
   width="103.4"
   height="103.4"
   inkscape:export-filename="odysee.svg"
   inkscape:export-xdpi="96"
   inkscape:export-ydpi="96"
   inkscape:version="1.2.2 (b0a84865, 2022-12-01)"
   xmlns:inkscape="http://www.inkscape.org/namespaces/inkscape"
   xmlns:sodipodi="http://sodipodi.sourceforge.net/DTD/sodipodi-0.dtd"
   xmlns="http://www.w3.org/2000/svg"
   xmlns:svg="http://www.w3.org/2000/svg"><defs
   id="defs70" /><sodipodi:namedview
   id="namedview68"
   pagecolor="#ffffff"
   bordercolor="#000000"
   borderopacity="0.25"
   inkscape:showpageshadow="2"
   inkscape:pageopacity="0.0"
   inkscape:pagecheckerboard="0"
   inkscape:deskcolor="#d1d1d1"
   showgrid="false"
   inkscape:zoom="1.9666667"
   inkscape:cx="122.28814"
   inkscape:cy="5.3389831"
   inkscape:window-width="1680"
   inkscape:window-height="997"
   inkscape:window-x="0"
   inkscape:window-y="25"
   inkscape:window-maximized="1"
   inkscape:current-layer="Layer_1" />
<style
   type="text/css"
   id="style2">
	.st0{fill:url(#SVGID_1_);}
	.st1{fill:#FFFFFF;}
	.st2{fill:none;}
	.st3{fill:#F9F9F9;}
</style>
<linearGradient
   id="SVGID_1_"
   gradientUnits="userSpaceOnUse"
   x1="37.899899"
   y1="5.5384002"
   x2="110.8449"
   y2="180.1506"
   gradientTransform="translate(-9,-8.2999992)">
	<stop
   offset="0"
   style="stop-color:#EF1970"
   id="stop4" />
	<stop
   offset="0.1438"
   style="stop-color:#F23B5C"
   id="stop6" />
	<stop
   offset="0.445"
   style="stop-color:#F77D35"
   id="stop8" />
	<stop
   offset="0.6983"
   style="stop-color:#FCAD18"
   id="stop10" />
	<stop
   offset="0.8909"
   style="stop-color:#FECB07"
   id="stop12" />
	<stop
   offset="1"
   style="stop-color:#FFD600"
   id="stop14" />
</linearGradient>
<circle
   class="st0"
   cx="51.700001"
   cy="51.700001"
   r="51.700001"
   id="circle17"
   style="fill:url(#SVGID_1_)" />
<path
   class="st1"
   d="m 11.9,38.300001 c -0.3,-0.4 -0.9,-0.6 -1.3,-0.3 -0.4,0.3 -0.6,0.9 -0.3,1.3 0.3,0.4 0.9,0.6 1.3,0.3 0.5,-0.3 0.6,-0.9 0.3,-1.3"
   id="path19" />
<path
   class="st1"
   d="m 67.4,13.400001 c -0.3,-0.4 -0.9,-0.6 -1.3,-0.3 -0.4,0.3 -0.6,0.9 -0.3,1.3 0.3,0.4 0.9,0.6 1.3,0.3 0.5,-0.3 0.6,-0.8 0.3,-1.3"
   id="path21" />
<path
   class="st1"
   d="m 78.9,50.700001 c -0.1,0.6 0.2,1.2 0.8,1.3 0.6,0.1 1.2,-0.2 1.3,-0.8 0.1,-0.6 -0.2,-1.2 -0.8,-1.3 -0.6,-0.1 -1.1,0.2 -1.3,0.8"
   id="path23" />
<path
   class="st1"
   d="m 62.3,87.700001 c -0.1,0.5 0.2,0.9 0.6,1 0.5,0.1 0.9,-0.2 1,-0.6 0.1,-0.5 -0.2,-0.9 -0.6,-1 -0.4,-0.2 -0.8,0.1 -1,0.6"
   id="path25" />
<path
   class="st1"
   d="m 19.2,21.200001 c -0.1,0.3 0.1,0.6 0.4,0.6 0.3,0.1 0.6,-0.1 0.6,-0.4 0.1,-0.3 -0.1,-0.6 -0.4,-0.6 -0.3,0 -0.6,0.1 -0.6,0.4"
   id="path27" />
<path
   class="st1"
   d="m 21.9,70.000001 c -0.1,-0.4 -0.4,-0.7 -0.8,-0.6 -0.4,0.1 -0.7,0.4 -0.6,0.8 0.1,0.4 0.4,0.7 0.8,0.6 0.4,0 0.6,-0.4 0.6,-0.8"
   id="path29" />
<path
   class="st2"
   d="m 43.7,10.200001 c 0,0 -8.2,2.2 -7.5,10.9 0.6,7.7 4.6,11.9 13.1,8.7 8.5,-3.2 9.9,-5.4 7.8,-11.9 -2.1,-6.5 -4.4,-10.8000002 -13.4,-7.7 z"
   id="path31" />
<path
   class="st1"
   d="m 91.5,83.700001 c -0.3,-0.6 -6.4,-10.1 -7.2,-17.9 -0.6,-5.5 -7.7,-11.5 -12,-14.7 -1.6,-1.2 -1.7,-3.4 -0.3,-4.8 4.2,-4 11.7,-11.8 14.1,-15.9 1.7,-3.1 3.5,-8.9 3.4,-13.9 -2.9,-3.1 -6.2,-5.9 -9.8,-8.2000002 -3.5,1.7000002 -4.4,7.1000002 -5.9,13.3000002 -2.1,8.5 -7,7.5 -9,7.5 -1.9,0 -0.8,-3 -5.4,-16.3 C 54.8,-0.49999924 42.7,2.8000008 33.5,8.3000008 21.8,15.300001 27,30.200001 29.9,39.800001 c -1.6,1.6 -7.8,2.8 -13.4,5.8 -6.9,3.7 -14.1,9.7 -15.9,12.5 0.5,3.8 1.4,7.5 2.6,11 0.4,0.4 0.9,0.7 1.4,0.9 3.3,1.5 8.1,-1.1 12.7,-5.8 1.2,-1.3 1.9,-1.8 4.6,-3.5 5.4,-3.7 11.8,-5.5 11.8,-5.5 0,0 4.5,6.9 8.7,15.1 4.2,8.2 -4.5,10.9 -5.4,10.9 -1,0 -14.6,-1.3 -11.5,10.3 3,11.499999 19.7,7.4 28.2,1.8 8.5,-5.6 6.4,-23.9 6.4,-23.9 8.3,-1.3 10.9,7.5 11.7,12 0.8,4.5 -1,12.3 7.4,12.5 1.2,0 2.4,-0.2 3.5,-0.5 3.2,-2.4 6.2,-5.1 8.8,-8.2 -0.1,-0.8 0,-1.3 0,-1.5 z m -42.1,-54 c -8.5,3.2 -12.6,-1 -13.1,-8.7 -0.6,-8.7 7.5,-10.9 7.5,-10.9 9,-3.0000002 11.4,1.3 13.5,7.7 2.1,6.4 0.5,8.7 -7.9,11.9 z"
   id="path33" />
<polygon
   class="st1"
   points="97.4,50.4 96.3,48.1 93.7,47.5 96,46.4 96.6,43.8 97.7,46.1 100.3,46.7 98,47.8 "
   id="polygon35"
   transform="translate(-9,-8.2999992)" />

<g
   id="g65"
   transform="translate(-9,-8.2999992)">
	<g
   id="g57">
		<path
   class="st3"
   d="m 63.2,27.7 c 0.6,1.4 0.6,2.2 0.4,3.6"
   id="path53" />
		<path
   class="st1"
   d="m 63.6,32.4 c -0.1,0 -0.1,0 -0.2,0 -0.6,-0.1 -1,-0.7 -0.9,-1.3 0.2,-1.2 0.2,-1.8 -0.3,-3 -0.2,-0.6 0,-1.2 0.6,-1.4 0.6,-0.2 1.2,0 1.4,0.6 0.6,1.5 0.8,2.6 0.4,4.2 0,0.5 -0.5,0.9 -1,0.9 z"
   id="path55" />
	</g>
	<g
   id="g63">
		<path
   class="st3"
   d="m 60.6,21.7 c 0,0 0.2,0.2 0.8,1.2"
   id="path59" />
		<path
   class="st1"
   d="m 61.4,24 c -0.4,0 -0.8,-0.2 -1,-0.6 -0.4,-0.8 -0.6,-1 -0.6,-1 -0.4,-0.4 -0.4,-1.1 0,-1.5 0.4,-0.4 1.1,-0.4 1.5,0 0.1,0.1 0.5,0.5 1,1.5 0.3,0.5 0.1,1.2 -0.4,1.5 C 61.7,24 61.5,24 61.4,24 Z"
   id="path61" />
	</g>
</g>
</svg>
